<svg width="109" height="45" viewBox="0 0 109 45" fill="none" xmlns="http://www.w3.org/2000/svg">
<path d="M36.7572 5.79944C35.9348 8.17903 32.5926 11.1075 27.486 13.8895C26.5622 14.366 25.673 14.9341 24.8275 15.5879L27.4932 9.43493C28.043 8.18765 27.859 6.56103 25.9966 7.04672L20.651 8.36871C19.1257 8.73657 18.9464 9.98672 19.2213 11.2771L12.7139 26.1093C12.1951 27.2847 12.0731 28.9372 14.2415 28.4228L19.8621 27.0261L22.1045 21.8531C23.2999 19.7436 29.3197 15.8179 33.6397 14.059C35.5522 13.3032 40.5321 11.6909 40.5416 14.3464C36.5994 15.8035 32.8077 17.4704 31.0123 19.0912C28.5379 21.2955 29.7285 23.9395 31.7152 24.4166C35.0908 25.2069 45.1939 21.3587 48.6198 14.562L51.8544 13.7659L48.5505 21.5915C48.0317 22.8388 48.1847 24.4194 50.0471 23.9797L55.6676 22.0341C57.1953 21.6662 57.3794 20.419 57.102 19.1343L60.4634 11.2369C60.9822 10.0614 61.1041 8.40894 58.9357 8.92337L53.3128 10.3172L49.3442 11.303C48.8206 9.33147 46.0379 8.47792 43.6328 8.73657C42.6765 8.8429 41.4955 9.0527 40.2069 9.34583C42.765 8.19627 44.9357 6.8168 45.4378 5.10108C47.3002 -1.32496 33.8596 -0.359326 26.0731 1.31903C17.8252 3.11809 10.5335 4.80795 1.927 9.17915C-0.0859708 10.2051 -0.882075 13.5101 1.31976 15.5678C5.4748 12.1881 16.9621 6.56965 24.7487 4.64701C29.609 3.48595 37.8569 2.64103 36.7572 5.79944Z" fill="white"/>
<path d="M101.36 27.0279C94.2718 27.0279 77.042 27.982 69.1598 28.5712C68.641 27.2492 68.182 26.9187 65.8296 27.1026C62.2435 27.39 53.637 28.3873 48.7217 29.3443C45.5134 29.9679 44.9635 30.4105 44.5356 31.6578C33.6292 33.0947 18.2618 36.69 9.46396 39.1126C7.04935 39.7736 7.26452 41.9406 8.57701 44.8777C17.621 41.4635 32.1302 37.6929 44.2893 35.6237L45.4847 38.4517C47.1032 42.2711 47.3184 42.4924 51.7483 41.7193L59.5994 40.3226C63.9983 39.5524 64.2421 39.0753 66.0543 35.5864L67.8258 32.1722L63.5799 32.7958L62.7551 34.6322L64.1298 34.4483C64.1919 34.5949 64.1919 35.2559 63.7019 35.3306L60.9215 35.7358C60.4935 35.8105 60.4433 35.4484 60.5557 35.1122L61.3805 33.1292L60.5557 33.2758L60.8617 32.5056L61.7176 32.359L62.2674 31.0743C62.2053 30.7065 62.2363 30.4134 62.6954 30.3386L64.07 30.1547C64.529 30.08 64.5888 30.4852 64.4669 30.7783L63.8859 32.063C63.8859 32.063 65.7196 31.6951 68.1892 31.4882C77.5679 30.6059 96.6625 29.7639 103.995 29.7639C103.689 26.9187 103.596 27.0279 101.36 27.0279ZM54.1964 34.1897L53.4027 35.8795C53.4649 36.2474 53.4338 36.5031 53.0369 36.6497L51.6025 36.9371C51.2056 37.0463 51.1435 36.6066 51.2654 36.3135L52.0902 34.4052C52.2432 34.0747 52.0591 33.8304 51.7531 33.9281C51.3873 34.0373 51.0192 34.4052 50.6223 35.0288L49.9601 36.5692C50.0222 36.9371 49.9912 37.1929 49.5632 37.3394L48.1886 37.5952C47.7296 37.7418 47.6698 37.3078 47.7917 36.9716L49.0134 34.0977L47.6387 34.3535C47.5766 34.2069 47.5479 33.4712 48.0667 33.362L50.9355 32.7872C51.3945 32.678 51.4543 33.1177 51.3324 33.362L51.2415 33.5833C51.7528 32.9895 52.4251 32.6375 53.1349 32.5918C54.0745 32.609 54.5311 33.4913 54.1964 34.1897ZM59.8791 35.1812C59.1141 35.9514 57.9235 36.3939 56.9457 36.4658C54.8993 36.575 54.3159 35.2904 54.7774 34.0776C55.3272 32.4998 56.8549 32.0199 57.8638 31.9107C58.3419 31.8733 60.154 31.8733 59.6353 33.2326C59.0256 34.7759 57.039 34.8133 56.5489 34.7759C56.5489 35.2156 56.8238 35.5088 57.5267 35.4369C58.3474 35.367 59.1383 35.0379 59.8193 34.4828C59.874 34.5112 59.9213 34.5565 59.9564 34.6142C59.9916 34.6719 60.0134 34.7398 60.0195 34.8109C60.0255 34.8821 60.0157 34.9539 59.9911 35.0189C59.9664 35.084 59.9278 35.14 59.8791 35.1812Z" fill="white"/>
<path d="M58.2987 6.93889C60.742 6.36411 61.7198 5.17719 62.4227 3.55918C63.1853 1.83484 62.9726 -0.176889 59.3674 0.659416C56.9026 1.28305 55.9152 2.45848 55.2147 4.07361C54.4497 5.80082 54.6625 7.8298 58.2987 6.93889Z" fill="white"/>
<path d="M58.2659 33.0896C58.3878 32.7217 58.2061 32.6499 58.0268 32.6499C57.3861 32.7965 57.049 33.3483 56.7741 33.9345C56.7108 34.0624 56.6595 34.1983 56.6211 34.3398C57.4124 34.2995 58.0842 33.492 58.2659 33.0896Z" fill="white"/>
<path d="M108.46 14.5027C104.274 17.4399 99.3256 19.1297 93.6118 19.4228C89.3086 19.6441 88.632 16.9628 90.1286 13.9624C91.1661 11.8329 92.481 9.51939 94.6183 9.11417C95.4742 8.9676 96.2679 9.44467 95.687 10.8385C95.0463 12.3818 92.8755 13.6664 91.3837 14.0716L91.1446 14.9884C90.7478 16.4943 92.0603 16.4943 93.007 16.3851C96.0934 16.0546 100.308 14.6608 101.592 11.2811C103.548 6.06496 96.1842 6.03047 94.2286 6.24889C90.2888 6.68859 84.9049 8.85552 82.3444 14.1809C81.9625 15.161 81.7425 16.221 81.6966 17.3019L80.8766 17.5893C79.2031 18.1641 78.4859 17.6985 77.8523 16.8909L75.4186 13.7009C77.5766 12.4523 79.8654 11.5609 82.2225 11.0512C82.4353 8.22326 82.1604 7.08519 79.6549 7.8554C78.3233 8.24625 75.3851 9.86713 70.2857 13.6204L73.8718 5.13669C74.3906 3.88942 74.2376 2.30877 72.3752 2.74848L67.0296 4.07047C65.5019 4.43833 65.3179 5.6856 65.5952 6.97311L59.8575 20.5609C59.3387 21.8082 59.4917 23.4348 61.3541 22.9491L66.7021 21.5926C68.2297 21.2248 68.4138 19.9775 68.1365 18.69L69.2673 16.0201L69.1454 16.3392L72.6286 20.8569C73.6973 22.4721 75.4401 22.656 77.0897 22.0697L82.4807 20.0896C83.7837 21.9548 86.7003 22.8773 91.1733 22.8773C96.55 22.8773 104.279 20.7851 107.946 17.9198C109.073 17.026 109.376 16.1926 108.46 14.5027Z" fill="white"/>
</svg>
