<svg width="61" height="19" viewBox="0 0 61 19" fill="none" xmlns="http://www.w3.org/2000/svg">
<path d="M12.2124 8.57955L10.3374 8.78409C10.2843 8.5947 10.1915 8.41667 10.0589 8.25C9.93016 8.08333 9.75592 7.94886 9.53622 7.84659C9.31652 7.74432 9.04759 7.69318 8.7294 7.69318C8.30137 7.69318 7.94152 7.78598 7.64986 7.97159C7.36198 8.1572 7.21993 8.39773 7.22372 8.69318C7.21993 8.94697 7.31274 9.15341 7.50213 9.3125C7.69531 9.47159 8.01349 9.60227 8.45668 9.70455L9.94531 10.0227C10.7711 10.2008 11.3847 10.483 11.7862 10.8693C12.1915 11.2557 12.3961 11.7614 12.3999 12.3864C12.3961 12.9356 12.2351 13.4205 11.9169 13.8409C11.6025 14.2576 11.165 14.5833 10.6044 14.8182C10.0438 15.053 9.39986 15.1705 8.67259 15.1705C7.6044 15.1705 6.74455 14.947 6.09304 14.5C5.44152 14.0492 5.05327 13.4223 4.92827 12.6193L6.93395 12.4261C7.02486 12.8201 7.21804 13.1174 7.51349 13.3182C7.80895 13.5189 8.19342 13.6193 8.6669 13.6193C9.15554 13.6193 9.54759 13.5189 9.84304 13.3182C10.1423 13.1174 10.2919 12.8693 10.2919 12.5739C10.2919 12.3239 10.1953 12.1174 10.0021 11.9545C9.81274 11.7917 9.51728 11.6667 9.11577 11.5795L7.62713 11.267C6.79001 11.0928 6.17069 10.7992 5.76918 10.3864C5.36766 9.9697 5.1688 9.44318 5.17259 8.80682C5.1688 8.26894 5.31463 7.80303 5.61009 7.40909C5.90933 7.01136 6.3241 6.70455 6.8544 6.48864C7.38849 6.26894 8.00402 6.15909 8.70099 6.15909C9.72372 6.15909 10.5286 6.37689 11.1158 6.8125C11.7067 7.24811 12.0722 7.83712 12.2124 8.57955ZM17.9595 15.1705C17.0845 15.1705 16.3288 14.9886 15.6925 14.625C15.0599 14.2576 14.5732 13.7386 14.2322 13.0682C13.8913 12.3939 13.7209 11.6004 13.7209 10.6875C13.7209 9.78977 13.8913 9.00189 14.2322 8.32386C14.5769 7.64205 15.058 7.11174 15.6754 6.73295C16.2929 6.35038 17.0182 6.15909 17.8516 6.15909C18.3894 6.15909 18.897 6.24621 19.3743 6.42045C19.8554 6.59091 20.2796 6.85606 20.647 7.21591C21.0182 7.57576 21.3099 8.03409 21.522 8.59091C21.7341 9.14394 21.8402 9.80303 21.8402 10.5682V11.1989H14.6868V9.8125H19.8686C19.8648 9.41856 19.7796 9.06818 19.6129 8.76136C19.4463 8.45076 19.2133 8.20644 18.9141 8.02841C18.6186 7.85038 18.2739 7.76136 17.88 7.76136C17.4595 7.76136 17.0902 7.86364 16.772 8.06818C16.4538 8.26894 16.2057 8.53409 16.0277 8.86364C15.8535 9.18939 15.7644 9.54735 15.7607 9.9375V11.1477C15.7607 11.6553 15.8535 12.0909 16.0391 12.4545C16.2247 12.8144 16.4841 13.0909 16.8175 13.2841C17.1508 13.4735 17.541 13.5682 17.9879 13.5682C18.2872 13.5682 18.558 13.5265 18.8004 13.4432C19.0429 13.3561 19.2531 13.2292 19.4311 13.0625C19.6091 12.8958 19.7436 12.6894 19.8345 12.4432L21.755 12.6591C21.6338 13.1667 21.4027 13.6098 21.0618 13.9886C20.7247 14.3636 20.2929 14.6553 19.7663 14.8636C19.2398 15.0682 18.6375 15.1705 17.9595 15.1705ZM26.0916 15.1761C25.5386 15.1761 25.0405 15.0777 24.5973 14.8807C24.1579 14.6799 23.8094 14.3845 23.5518 13.9943C23.2981 13.6042 23.1712 13.1231 23.1712 12.5511C23.1712 12.0587 23.2621 11.6515 23.4439 11.3295C23.6257 11.0076 23.8738 10.75 24.1882 10.5568C24.5026 10.3636 24.8568 10.2178 25.2507 10.1193C25.6484 10.017 26.0594 9.94318 26.4837 9.89773C26.995 9.8447 27.4098 9.79735 27.728 9.75568C28.0462 9.71023 28.2772 9.64205 28.4212 9.55114C28.5689 9.45644 28.6428 9.31061 28.6428 9.11364V9.07955C28.6428 8.65152 28.5159 8.32008 28.2621 8.08523C28.0083 7.85038 27.6428 7.73295 27.1655 7.73295C26.6617 7.73295 26.2621 7.8428 25.9666 8.0625C25.675 8.2822 25.478 8.54167 25.3757 8.84091L23.4553 8.56818C23.6068 8.03788 23.8568 7.5947 24.2053 7.23864C24.5537 6.87879 24.9799 6.60985 25.4837 6.43182C25.9875 6.25 26.5443 6.15909 27.1541 6.15909C27.5746 6.15909 27.9931 6.20833 28.4098 6.30682C28.8265 6.4053 29.2071 6.56818 29.5518 6.79545C29.8965 7.01894 30.1731 7.32386 30.3814 7.71023C30.5935 8.09659 30.6996 8.57955 30.6996 9.15909V15H28.7223V13.8011H28.6541C28.5291 14.0436 28.353 14.2708 28.1257 14.483C27.9022 14.6913 27.62 14.8598 27.2791 14.9886C26.942 15.1136 26.5462 15.1761 26.0916 15.1761ZM26.6257 13.6648C27.0386 13.6648 27.3965 13.5833 27.6996 13.4205C28.0026 13.2538 28.2356 13.0341 28.3984 12.7614C28.5651 12.4886 28.6484 12.1913 28.6484 11.8693V10.8409C28.584 10.8939 28.4742 10.9432 28.3189 10.9886C28.1674 11.0341 27.9969 11.0739 27.8075 11.108C27.6181 11.142 27.4306 11.1723 27.245 11.1989C27.0594 11.2254 26.8984 11.2481 26.7621 11.267C26.4553 11.3087 26.1806 11.3769 25.9382 11.4716C25.6958 11.5663 25.5045 11.6989 25.3643 11.8693C25.2242 12.036 25.1541 12.2519 25.1541 12.517C25.1541 12.8958 25.2924 13.1818 25.5689 13.375C25.8454 13.5682 26.1977 13.6648 26.6257 13.6648ZM32.7678 15V6.27273H34.7621V7.72727H34.853C35.0121 7.22348 35.2848 6.83523 35.6712 6.5625C36.0613 6.28598 36.5064 6.14773 37.0064 6.14773C37.12 6.14773 37.2469 6.15341 37.3871 6.16477C37.531 6.17235 37.6503 6.18561 37.745 6.20455V8.09659C37.6579 8.06629 37.5196 8.03977 37.3303 8.01705C37.1446 7.99053 36.9647 7.97727 36.7905 7.97727C36.4155 7.97727 36.0784 8.05871 35.7791 8.22159C35.4837 8.38068 35.2507 8.60227 35.0803 8.88636C34.9098 9.17045 34.8246 9.49811 34.8246 9.86932V15H32.7678ZM42.5589 15.1705C41.6877 15.1705 40.9396 14.9792 40.3146 14.5966C39.6934 14.214 39.2143 13.6856 38.8771 13.0114C38.5438 12.3333 38.3771 11.553 38.3771 10.6705C38.3771 9.78409 38.5476 9.00189 38.8885 8.32386C39.2294 7.64205 39.7105 7.11174 40.3317 6.73295C40.9567 6.35038 41.6953 6.15909 42.5476 6.15909C43.2559 6.15909 43.8828 6.28977 44.4283 6.55114C44.9775 6.80871 45.415 7.17424 45.7408 7.64773C46.0665 8.11742 46.2521 8.66667 46.2976 9.29545H44.3317C44.2521 8.875 44.0627 8.52462 43.7635 8.24432C43.468 7.96023 43.0722 7.81818 42.576 7.81818C42.1555 7.81818 41.7862 7.93182 41.468 8.15909C41.1499 8.38258 40.9018 8.70455 40.7237 9.125C40.5495 9.54545 40.4624 10.0492 40.4624 10.6364C40.4624 11.2311 40.5495 11.7424 40.7237 12.1705C40.898 12.5947 41.1423 12.9223 41.4567 13.1534C41.7749 13.3807 42.148 13.4943 42.576 13.4943C42.879 13.4943 43.1499 13.4375 43.3885 13.3239C43.6309 13.2064 43.8336 13.0379 43.9964 12.8182C44.1593 12.5985 44.2711 12.3314 44.3317 12.017H46.2976C46.2483 12.6345 46.0665 13.1818 45.7521 13.6591C45.4377 14.1326 45.0097 14.5038 44.468 14.7727C43.9264 15.0379 43.29 15.1705 42.5589 15.1705ZM50.0433 9.88636V15H47.9865V3.36364H49.9979V7.75568H50.1001C50.3047 7.26326 50.621 6.875 51.049 6.59091C51.4808 6.30303 52.0301 6.15909 52.6967 6.15909C53.3028 6.15909 53.8312 6.28598 54.282 6.53977C54.7327 6.79356 55.0812 7.16477 55.3274 7.65341C55.5774 8.14205 55.7024 8.73864 55.7024 9.44318V15H53.6456V9.76136C53.6456 9.17424 53.4941 8.7178 53.1911 8.39205C52.8918 8.0625 52.4714 7.89773 51.9297 7.89773C51.5661 7.89773 51.2403 7.97727 50.9524 8.13636C50.6683 8.29167 50.4448 8.51705 50.282 8.8125C50.1229 9.10795 50.0433 9.46591 50.0433 9.88636Z" fill="white"/>
</svg>
