<svg width="311" height="160" viewBox="0 0 311 160" fill="none" xmlns="http://www.w3.org/2000/svg">
<g clip-path="url(#clip0_1550_4070)">
<path d="M231 0C186.833 0 151 35.8333 151 80C151 124.18 186.833 160 231 160C275.173 160 311 124.18 311 80C311 35.8333 275.18 0 231 0ZM226.84 144.133V93.9467H198.933L239.02 15.8667V66.0533H265.88L226.84 144.133Z" fill="#1D978B"/>
<path d="M51.9965 143.02C45.3679 137.814 38.2971 132.822 33.4653 125.794C23.2985 113.399 15.4705 99.048 10.1189 83.9672C6.88426 74.161 5.77645 63.6476 1.60657 54.2203C-2.75555 47.3732 2.35407 39.8882 9.86489 37.7117C13.2089 37.0708 19.0886 33.9212 11.9912 36.1724C5.62807 40.8342 5.01226 31.9407 11.5371 31.3776C15.99 30.7865 17.6292 27.1464 16.1065 23.8695C11.3265 20.7568 27.6972 17.336 19.4601 12.6915C10.8793 3.44697 31.4628 1.66737 26.3846 12.1663C25.169 20.2396 40.7674 10.6867 37.1482 20.0095C40.8267 24.4867 50.9233 21.0285 50.6729 27.3096C56.0315 27.6774 57.8706 32.1798 62.901 32.5254C68.1144 34.8764 77.5656 36.7291 79.3397 42.5957C74.1673 46.6848 62.19 34.1492 61.6146 45.4683C63.1771 62.1893 62.779 79.414 68.9055 95.3374C71.8032 104.979 78.8281 112.569 85.1724 120.078C91.2425 127.433 99.4648 132.61 107.845 136.969C115.197 140.432 123.123 142.728 131.135 144.169C134.384 141.687 140.121 132.459 145.191 136.35C145.431 140.722 135.129 145.49 144.706 145.006C150.33 143.312 154.23 149.349 158.861 143.904C163.128 148.95 176.594 140.68 173.559 150.995C169.454 153.639 163.467 152.041 159.355 155.679C152.576 152.298 147.179 158.705 139.674 157.895C131.34 159.385 122.861 159.987 114.411 160C100.548 158.906 86.3923 158.445 73.2047 153.626C65.7757 151.47 58.5258 147.246 51.9965 143.02ZM63.704 148.085C70.9582 151.218 78.0515 154.52 86.0017 155.516C98.6147 157.267 111.64 159.962 124.298 157.504C118.569 154.921 112.646 158.51 106.939 155.657C100.094 157.128 92.7479 155.282 85.789 154.373C77.8754 150.853 69.3353 148.433 61.9246 143.864C52.6646 140.487 66.7138 148.195 69.2145 148.82C75.0031 152.101 62.8488 147.138 61.1353 145.774C56.2869 143.058 55.6691 143.626 60.6552 146.384C61.6595 146.971 62.6519 147.585 63.704 148.085ZM49.9005 138.344C56.9301 140.944 49.8695 133.408 46.6483 133.846C45.2211 131.373 41.1957 129.812 44.0353 128.483C38.9274 130.254 38.6846 121.75 36.2837 122.965C30.88 121.261 34.1806 115.225 27.7439 111.519C27.1563 107.613 21.3488 104.225 19.4964 98.3342C18.6783 95.318 12.9351 86.6563 16.4632 94.7173C19.4671 102.477 24.7524 109.123 29.1507 115.761C32.566 122.081 36.5987 128.686 42.8186 132.629C44.9153 134.637 46.9396 137.715 49.9005 138.344ZM80.8695 151.4C83.7484 153.214 97.6812 155.376 88.9568 152.144C87.4969 152.451 72.7795 147.987 80.8695 151.4ZM49.0464 125.599C52.4246 128.186 62.6706 125.931 54.22 124.055C50.3738 122.008 41.7052 120.606 47.6139 125.29L49.0464 125.599ZM65.3999 134.252C73.6605 136.585 58.4535 129.035 63.3618 133.393L64.4497 133.885L65.3999 134.252ZM79.7121 142.719C72.6459 141.316 87.5353 142.817 79.7121 142.719ZM65.47 129.881C71.471 130.654 58.3297 125.805 64.1533 129.447L65.47 129.881ZM86.3262 142.687C91.9289 139.342 90.0818 150.519 95.8314 143.631C101.503 139.496 90.9336 148.743 97.9235 144.368C102.979 140.992 110.445 145.969 115.162 147.592C118.554 147.426 121.852 150.521 125.329 148.638C132.023 146.838 112.239 145.968 117.425 142.773C111.3 144.554 106.774 140.651 103.761 136.733C96.8899 135.149 88.946 131.642 85.517 125.57C84.119 123.29 87.5367 125.891 84.3102 122.165C80.1701 118.488 78.1028 114.314 75.3236 109.844C72.0035 108.075 71.6167 102.869 71.281 109.669C71.3073 105.378 67.2724 102.489 66.2876 103.69C66.2699 99.5566 70.6057 101.628 67.5705 98.5704C66.9172 94.2865 64.7662 89.8226 64.1197 84.986C63.1151 82.6545 63.9782 77.6611 60.6912 82.939C59.4936 88.5169 60.2937 76.0844 62.156 80.1841C64.6004 76.0007 61.2784 76.4927 61.1423 77.0736C62.7346 73.5439 62.1502 68.5372 60.7269 70.4473C61.5753 66.7062 62.0673 56.679 59.457 58.456C61.0393 54.5439 62.4578 40.5552 55.5889 45.8887C52.805 45.9277 47.9842 46.8978 45.7055 48.0294C52.8504 51.9623 44.9868 49.4497 42.0783 48.8246C41.6994 52.4637 38.8186 50.8898 35.2196 50.9255C40.968 51.6357 32.4204 56.7963 29.1227 54.7917C24.84 56.8357 32.8188 61.9378 29.2086 63.5153C29.6523 65.8937 22.6474 62.6565 23.1976 68.1489C19.0399 66.4023 22.6251 74.6641 24.7052 71.8699C31.7767 73.7811 29.6834 78.1382 29.8635 82.2772C28.7112 84.689 24.1749 76.6082 28.8531 76.9825C25.1624 70.9955 24.7705 74.8185 21.7036 77.5997C20.9901 77.8017 29.5266 81.5571 24.1695 83.414C28.8826 84.1402 29.0167 88.2587 29.9762 90.8649C32.809 93.8112 32.2292 87.6115 35.6188 91.1523C33.4738 87.9978 24.2574 82.2643 31.6779 84.1032C31.6382 80.9284 30.3358 78.3682 32.6092 78.4303C34.8606 74.359 30.2514 88.4687 35.326 83.2943C36.7308 82.6818 37.0787 79.2177 39.6037 83.6214C43.2712 87.2241 40.9284 89.8347 35.7551 86.5359C36.6807 89.6713 42.6757 90.7917 41.5491 95.6948C42.7434 100.007 44.4144 98.4189 45.8709 98.1696C47.0135 102.36 47.6623 99.2786 47.7165 97.2847C52.9479 98.403 51.7225 101.491 53.3594 103.648C56.9644 105.273 48.1996 92.6347 54.3886 99.8481C60.9001 105.719 56.8306 108.169 50.9872 107.229C54.6856 106.93 55.8783 112.222 60.5043 112.036C64.7229 114.04 67.579 121.737 60.3076 118.533C57.7856 116.262 48.8607 113.461 56.1503 117.78C62.8829 120.893 68.2302 122.756 74.7235 126.664C79.3706 129.976 81.3783 133.771 83.1397 134.522C79.234 136.385 71.3695 133.034 77.2093 132.007C73.5669 131.345 69.47 129.506 72.9589 134.037C75.9256 136.511 83.4695 136.249 84.8218 136.529C83.6755 139.051 81.7082 139.252 84.8688 139.448C81.3428 141.324 85.9995 141.614 86.3262 142.687ZM79.1158 122.354C76.9705 120.113 76.4159 115.917 78.7348 119.568C79.9241 120.045 82.5443 126.426 79.1158 122.354ZM65.367 99.7431C62.8106 94.0238 67.1769 96.6191 65.9326 100.68L65.367 99.7431ZM41.8326 84.0704C40.6897 82.194 38.7991 76.6886 39.4078 75.0079C39.9584 77.7451 45.2369 86.7874 41.997 78.7536C38.4167 72.0192 46.2768 80.9395 47.0853 82.6192C47.4618 84.2902 44.8763 82.1627 46.6282 86.0807C43.4334 81.6199 44.7422 88.5447 41.8326 84.0704ZM29.9608 74.1108C27.2529 71.4238 25.2933 68.9469 30.0875 72.4432C31.9348 72.5152 25.9832 66.8104 30.5324 70.6316C35.316 71.5026 32.8945 78.4637 29.9608 74.1108ZM31.5818 69.9916C23.7097 62.9959 41.4736 73.6496 32.8679 71.2886L31.5818 69.9916ZM54.1366 83.0778C50.7301 81.0381 53.2339 68.7188 54.3956 77.1443C57.7073 76.0746 54.2127 81.4957 56.6828 81.4455C56.2935 84.8659 55.1885 86.0956 54.1366 83.0778ZM33.126 67.6928C28.0687 60.7252 47.8239 74.7409 36.3652 69.4601C35.1678 69.1473 33.7271 69.0357 33.126 67.6928ZM49.2849 76.1982C50.6777 77.1707 48.6612 70.3314 49.2849 76.1982ZM33.9008 65.0336C36.9065 64.3916 46.3571 70.3049 37.6784 66.7227C36.7141 65.6567 34.6585 66.141 33.9008 65.0336ZM59.7172 77.8798C60.1358 71.8808 62.0554 74.2964 59.7317 78.7385L59.7172 77.8798ZM36.1382 62.9461C37.3629 61.1522 32.8872 54.8356 36.7834 60.6803C38.4669 62.0161 41.6578 62.9181 38.8405 63.48C43.2713 67.3832 37.7598 64.5377 36.1382 62.9461ZM53.5245 63.4255C55.2173 66.3376 53.0265 61.1075 53.5245 63.4255ZM55.7291 59.732C54.1666 56.9823 57.7023 47.6148 58.0969 53.4245C56.4476 57.9512 57.6211 60.4836 58.7716 54.4119C60.8963 49.6335 58.3127 63.8413 55.7291 59.732ZM62.2069 126.701C66.6816 127.848 66.6588 126.006 62.6145 125.459C60.4393 123.438 53.5755 121.295 59.7189 125.208C60.1258 126.237 61.4114 126.213 62.2069 126.701ZM46.3195 116.164C48.7846 118 55.605 121.366 49.8313 116.863C51.778 114.604 46.1054 113.402 47.9871 111.891C43.201 108.967 44.2115 109.227 47.5647 109.319C41.8125 106.751 48.395 106.944 48.085 105.628C45.867 105.191 37.0684 101.723 42.2446 105.913C36.9826 103.234 40.9906 106.911 39.4002 106.522C34.0195 105.057 44.1921 110.614 38.5456 109.235C41.6325 111.678 46.8546 115.492 39.8507 111.82C38.9279 113.146 44.8627 115.157 46.3195 116.164ZM102.229 148.905C104.589 146.621 102.325 152.543 106.14 148.346C106.181 145.341 106.022 143.567 101.756 147.217C100.58 147.868 100.055 150.637 102.229 148.905ZM63.5782 124.125C66.2037 126.454 75.6367 125.834 66.7671 124.412C65.4534 122.472 58.4255 122.939 63.5782 124.125ZM108.962 151.169C104.626 151.449 113.437 146.434 108.962 151.169ZM20.3338 95.1183C16.52 89.6845 17.963 87.242 14.2851 82.8051C13.5889 79.4122 7.97568 71.7131 11.3819 79.8697C14.5017 84.6402 15.4288 92.0262 20.3338 95.1183ZM112.531 150.444C116.522 147.874 111.611 148.268 111.807 150.68L112.531 150.444ZM118.936 152.18C124.049 148.497 115.836 151.475 117.862 152.878L118.936 152.18ZM33.1239 97.5674C36.8732 98.4062 48.1068 106.788 41.4794 98.1471C38.0852 97.1437 40.1208 88.8585 36.6586 90.3249C38.9824 94.2015 38.5705 95.8514 33.6916 93.4075C27.5595 90.4184 30.2455 94.8888 31.4439 96.1208C29.8108 96.4914 33.6041 97.5363 33.1239 97.5674ZM16.0425 84.0967C16.7137 81.3245 9.86219 68.8457 12.8071 77.8439C13.8702 79.7288 13.7621 83.3011 16.0425 84.0967ZM93.3471 130.712C90.241 130.652 92.5613 128.098 93.3471 130.712ZM133.333 148.748C137.043 147.997 145.499 150.634 146.866 147.766C142.36 147.656 131.276 144.591 130.751 148.497L131.738 148.652L133.333 148.748ZM17.7531 68.1701C21.4946 66.7025 10.9379 65.1344 16.9885 67.8928L17.7531 68.1701ZM6.06845 55.1166C5.39217 51.2453 5.48467 44.4501 11.9532 46.7466C3.31878 48.4584 17.9293 57.4631 16.0842 50.3536C19.7148 50.5311 23.1865 48.2109 21.2812 51.7319C28.4345 50.943 33.3939 44.7489 40.3035 45.6168C45.6858 44.9056 51.5706 44.3662 57.3707 42.2027C62.1395 41.8596 66.7301 36.7326 64.1162 33.6938C57.6129 33.1443 50.8054 33.9568 43.6175 35.3835C35.6524 37.0369 28.4175 40.1784 20.3809 41.5269C12.5475 42.5777 21.9565 44.422 19.7127 44.8329C15.6251 46.2492 24.5875 47.2042 19.1828 48.6972C15.8449 48.0635 12.3707 46.9182 13.7964 43.4058C6.29274 44.3781 -0.300868 47.488 5.62752 55.1131L6.06845 55.1166ZM24.1497 45.921C25.909 39.449 33.5754 51.2468 27.0333 46.7807C26.2519 46.1967 24.9668 45.7203 24.1497 45.921ZM27.7162 42.8343C27.9454 39.8562 35.0971 44.4109 28.8954 43.9064L27.7162 42.8343ZM33.255 40.309C35.9369 37.0912 48.4428 38.2554 39.2889 39.9953C36.8353 38.1507 34.9545 41.0829 33.255 40.309ZM54.2064 37.7715C55.8995 33.3414 60.7766 35.9938 54.9899 36.8813C55.1155 37.3527 54.8202 39.1684 54.2064 37.7715ZM16.8312 61.2652C11.4609 58.5815 21.8899 58.1718 16.8312 61.2652ZM163.097 148.804C167.138 148.818 175.342 147.551 166.548 147.555C165.168 147.77 158.508 147.724 163.097 148.804ZM23.8617 60.4877C27.1324 60.2634 28.9789 56.885 23.2291 57.0792C14.318 56.1579 31.0913 60.1261 22.086 58.9914C20.8759 59.7916 23.7914 60.7091 23.8617 60.4877ZM19.2817 34.6889C25.119 32.7059 33.1013 30.4777 35.8574 35.6652C33.0525 32.294 34.7255 28.9753 37.3748 33.9042C41.1209 38.8913 42.9963 31.636 40.5598 29.9632C43.3364 33.4083 46.4946 35.0363 42.4189 30.181C46.8478 24.861 33.5507 30.8776 30.5283 30.817C29.0742 31.4688 15.5153 34.27 19.2817 34.6889ZM22.7027 28.1464C26.0317 25.6374 34.2162 29.6389 28.9643 25.6529C28.4508 25.2 17.4624 28.6755 22.7027 28.1464ZM34.8393 28.6468C38.7355 28.7461 33.1587 23.4201 37.8015 25.8335C37.039 23.346 32.396 22.8804 30.1261 21.8866C28.8422 24.1608 32.7394 28.6774 34.8393 28.6468ZM29.7912 18.831C36.0699 17.9994 28.1908 16.131 28.526 18.7642L29.7912 18.831ZM20.5291 11.594C16.1082 5.8311 28.8432 12.5627 24.3516 6.52877C20.5711 3.52268 16.9383 9.91164 20.5291 11.594ZM77.2643 42.1097C79.292 38.5203 68.8929 37.2714 75.8981 40.8375C76.5431 41.0528 76.3971 42.3579 77.2643 42.1097Z" fill="white"/>
<path d="M106.507 105.766V56.4171H114.881V105.766H106.507ZM86.0193 85.2787V76.9044H135.368V85.2787H86.0193Z" fill="white"/>
</g>
<defs>
<clipPath id="clip0_1550_4070">
<rect width="311" height="160" fill="white"/>
</clipPath>
</defs>
</svg>
