<svg width="342" height="135" viewBox="0 0 342 135" fill="none" xmlns="http://www.w3.org/2000/svg">
<path d="M112.772 0.387695V134.436H88.2922L29.9734 50.0666H28.9916V134.436H0.650391V0.387695H25.5226L83.3832 84.6914H84.5613V0.387695H112.772Z" fill="white"/>
<path d="M136.188 134.436V0.387695H164.529V111.069H221.997V134.436H136.188Z" fill="white"/>
<path d="M240.765 134.436V0.387695H293.651C303.819 0.387695 312.48 2.32947 319.636 6.21303C326.793 10.0529 332.247 15.3983 336 22.2491C339.796 29.0562 341.694 36.9106 341.694 45.8122C341.694 54.7138 339.774 62.5682 335.934 69.3753C332.094 76.1824 326.531 81.4842 319.244 85.2805C312 89.0767 303.229 90.9749 292.931 90.9749H259.223V68.2626H288.35C293.804 68.2626 298.299 67.3245 301.833 65.4481C305.411 63.5282 308.073 60.8882 309.818 57.5283C311.607 54.1247 312.502 50.2194 312.502 45.8122C312.502 41.3614 311.607 37.4778 309.818 34.1615C308.073 30.8016 305.411 28.2053 301.833 26.3726C298.255 24.4963 293.717 23.5581 288.219 23.5581H269.107V134.436H240.765Z" fill="white"/>
</svg>
