<svg width="442" height="336" viewBox="0 0 442 336" fill="none" xmlns="http://www.w3.org/2000/svg">
<g clip-path="url(#clip0_1550_4029)">
<path d="M247.483 0.414062H17.9657C8.21504 0.414062 0.310547 8.31855 0.310547 18.0692V318.207C0.310547 327.958 8.21504 335.862 17.9657 335.862H247.483C257.234 335.862 265.138 327.958 265.138 318.207V18.0692C265.138 8.31855 257.234 0.414062 247.483 0.414062Z" fill="#955BA5"/>
<path d="M291.621 18.0695C282.739 18.0545 273.875 18.8523 265.138 20.453V315.824C273.875 317.425 282.739 318.223 291.621 318.207C374.502 318.207 441.69 251.019 441.69 168.139C441.69 85.2577 374.502 18.0695 291.621 18.0695ZM291.621 185.794C281.87 185.794 273.966 177.889 273.966 168.139C273.966 158.388 281.87 150.483 291.621 150.483C301.372 150.483 309.276 158.388 309.276 168.139C309.247 177.877 301.36 185.765 291.621 185.794Z" fill="#F3D55B"/>
<path d="M291.621 115.172C282.311 115.128 273.161 117.598 265.138 122.323V213.953C273.161 218.678 282.311 221.148 291.621 221.103C320.873 221.103 344.586 197.39 344.586 168.138C344.586 138.886 320.873 115.172 291.621 115.172ZM291.621 185.793C281.87 185.793 273.966 177.889 273.966 168.138C273.966 158.387 281.87 150.483 291.621 150.483C301.372 150.483 309.276 158.387 309.276 168.138C309.247 177.877 301.36 185.764 291.621 185.793Z" fill="#F9EAB0"/>
<path d="M88.5862 229.931C63.8689 229.931 44.4482 202.786 44.4482 168.138C44.4482 133.49 63.8689 106.345 88.5862 106.345C113.303 106.345 132.724 133.49 132.724 168.138C132.724 202.786 113.303 229.931 88.5862 229.931ZM88.5862 124C74.2325 124 62.1034 144.215 62.1034 168.138C62.1034 192.061 74.2325 212.276 88.5862 212.276C102.94 212.276 115.069 192.061 115.069 168.138C115.069 144.215 102.94 124 88.5862 124Z" fill="white"/>
<path d="M185.69 229.931C166.188 229.931 150.379 214.122 150.379 194.621C150.379 189.745 154.332 185.793 159.207 185.793C164.082 185.793 168.035 189.745 168.035 194.621C168.035 204.371 175.939 212.276 185.69 212.276C195.44 212.276 203.345 204.371 203.345 194.621C203.345 184.87 195.44 176.965 185.69 176.965C166.188 176.965 150.379 161.156 150.379 141.655C150.379 122.154 166.188 106.345 185.69 106.345C205.191 106.345 221 122.154 221 141.655C221 146.53 217.048 150.483 212.172 150.483C207.297 150.483 203.345 146.53 203.345 141.655C203.345 131.904 195.44 124 185.69 124C175.939 124 168.035 131.904 168.035 141.655C168.035 151.406 175.939 159.31 185.69 159.31C205.191 159.31 221 175.119 221 194.621C221 214.122 205.191 229.931 185.69 229.931Z" fill="white"/>
</g>
<defs>
<clipPath id="clip0_1550_4029">
<rect width="442" height="336" fill="white"/>
</clipPath>
</defs>
</svg>
