<svg width="25" height="25" viewBox="0 0 25 25" fill="none" xmlns="http://www.w3.org/2000/svg">
<g clip-path="url(#clip0_1217_204)">
<path d="M14.6236 21.9339H2.83115C2.20564 21.9339 1.60574 21.6854 1.16344 21.2431C0.721139 20.8008 0.472656 20.2009 0.472656 19.5754V3.06601C0.472656 2.4405 0.721139 1.84061 1.16344 1.39831C1.60574 0.956002 2.20564 0.70752 2.83115 0.70752H21.6991C22.3246 0.70752 22.9245 0.956002 23.3668 1.39831C23.8091 1.84061 24.0576 2.4405 24.0576 3.06601V13.6792" stroke="black" stroke-width="0.962264" stroke-linecap="round"/>
<path d="M0.472656 5.42412H24.0576M4.01039 3.07743L4.02218 3.06445M7.54813 3.07743L7.55992 3.06445M11.0859 3.07743L11.0977 3.06445M21.1094 16.0373V23.1128M21.1094 23.1128L18.1613 20.1647M21.1094 23.1128L24.0576 20.1647" stroke="black" stroke-width="0.962264" stroke-linecap="round" stroke-linejoin="round"/>
<path d="M9.27215 15.903C8.69479 15.903 8.20115 15.8019 7.79122 15.5998C7.38707 15.3978 7.06087 15.1351 6.8126 14.8117C6.56434 14.4884 6.38247 14.1391 6.267 13.7638C6.15153 13.3828 6.09379 13.0162 6.09379 12.664V12.4734C6.09379 12.0924 6.15153 11.7113 6.267 11.3303C6.38824 10.9492 6.573 10.6028 6.82126 10.291C7.06953 9.97926 7.39285 9.72811 7.79122 9.53758C8.1896 9.34705 8.66592 9.25179 9.22019 9.25179C9.786 9.25179 10.271 9.34994 10.6751 9.54624C11.0793 9.74254 11.3997 10.0168 11.6364 10.369C11.8731 10.7212 12.0175 11.1369 12.0695 11.6161H11.2034C11.1572 11.2581 11.0418 10.9637 10.857 10.7327C10.6722 10.496 10.4384 10.3199 10.1555 10.2044C9.87838 10.089 9.5666 10.0312 9.22019 10.0312C8.8449 10.0312 8.51581 10.0976 8.2329 10.2304C7.95 10.3574 7.71328 10.5393 7.52275 10.776C7.338 11.007 7.19655 11.2754 7.09839 11.5814C7.00602 11.8874 6.95983 12.2194 6.95983 12.5774C6.95983 12.918 7.00602 13.2413 7.09839 13.5473C7.19655 13.8533 7.34088 14.1247 7.53141 14.3614C7.72772 14.5981 7.97021 14.7858 8.25888 14.9243C8.54756 15.0571 8.88532 15.1235 9.27215 15.1235C9.81487 15.1235 10.271 14.9878 10.6405 14.7165C11.01 14.4451 11.2352 14.0525 11.316 13.5387H12.182C12.1243 13.9717 11.9771 14.3672 11.7404 14.7251C11.5094 15.0831 11.1861 15.3689 10.7704 15.5825C10.3605 15.7961 9.86105 15.903 9.27215 15.903ZM14.8578 15.7471L12.6667 9.425H13.5414L15.5073 15.1928L15.0917 14.985H16.1309L15.6892 15.1928L17.4992 9.425H18.348L16.3128 15.7471H14.8578Z" fill="black"/>
</g>
<defs>
<clipPath id="clip0_1217_204">
<rect width="25" height="24.0566" fill="white"/>
</clipPath>
</defs>
</svg>
