<svg xmlns="http://www.w3.org/2000/svg" width="45" height="45" viewBox="0 0 45 45" fill="none">
    <ellipse cx="22.0312" cy="22.5" rx="22.0312" ry="22.5" fill="white"/>
    <path d="M22.0267 0.9375C10.3803 0.9375 0.935547 10.6207 0.935547 22.5659C0.935547 32.1198 6.97891 40.2251 15.3637 43.0875C16.4184 43.2868 16.8033 42.6189 16.8033 42.0454C16.8033 41.5311 16.7849 40.1712 16.7743 38.3671C10.9076 39.6731 9.66836 35.4669 9.66836 35.4669C8.71123 32.968 7.32695 32.3029 7.32695 32.3029C5.41006 30.9619 7.46934 30.9889 7.46934 30.9889C9.58662 31.1423 10.6993 33.2185 10.6993 33.2185C12.5819 36.5225 15.6379 35.5693 16.8402 35.0146C17.0301 33.617 17.5759 32.6638 18.1797 32.1225C13.4969 31.5759 8.57148 29.7206 8.57148 21.4349C8.57148 19.0733 9.39414 17.1426 10.7441 15.6293C10.5253 15.0826 9.80283 12.8826 10.9498 9.90713C10.9498 9.90713 12.7217 9.32549 16.7506 12.1233C18.4328 11.644 20.2363 11.4043 22.0319 11.3962C23.8223 11.407 25.6284 11.644 27.3133 12.126C31.3396 9.32818 33.1088 9.90982 33.1088 9.90982C34.2584 12.888 33.5359 15.0853 33.3197 15.632C34.6724 17.1453 35.4871 19.076 35.4871 21.4376C35.4871 29.7448 30.5564 31.5732 25.8578 32.109C26.6145 32.7769 27.2896 34.0963 27.2896 36.1132C27.2896 39.0052 27.2632 41.3372 27.2632 42.0454C27.2632 42.6243 27.6429 43.2975 28.7134 43.0848C37.085 40.2197 43.123 32.1171 43.123 22.5659C43.123 10.6207 33.6783 0.9375 22.0267 0.9375Z" fill="#32343D"/>
</svg>