<svg xmlns="http://www.w3.org/2000/svg" width="46" height="45" viewBox="0 0 46 45" fill="none">
    <g clip-path="url(#clip0_1261_1212)">
        <path d="M22.5748 0.34082C13.3218 0.34082 10.6157 0.350366 10.0897 0.394002C8.19081 0.551843 7.00922 0.85082 5.72195 1.49173C4.7299 1.98434 3.94752 2.55537 3.17536 3.35582C1.76911 4.81559 0.916835 6.6115 0.608312 8.74628C0.458312 9.78264 0.414676 9.994 0.405812 15.2876C0.402403 17.0522 0.405812 19.3745 0.405812 22.4893C0.405812 31.7348 0.416039 34.4382 0.460357 34.9632C0.613767 36.8109 0.903539 37.9734 1.51718 39.245C2.6899 41.6791 4.92968 43.5064 7.56831 44.1882C8.48195 44.4234 9.49104 44.553 10.7865 44.6143C11.3354 44.6382 16.9297 44.6553 22.5274 44.6553C28.1251 44.6553 33.7229 44.6484 34.2581 44.6212C35.7581 44.5506 36.6291 44.4337 37.5922 44.1848C40.2479 43.4996 42.4467 41.6996 43.6433 39.2314C44.245 37.9905 44.5501 36.7837 44.6882 35.0324C44.7182 34.6506 44.7308 28.563 44.7308 22.4836C44.7308 16.4031 44.7172 10.3267 44.6872 9.94491C44.5474 8.16537 44.2423 6.96878 43.6211 5.704C43.1115 4.66866 42.5456 3.89548 41.724 3.10491C40.2577 1.70446 38.4646 0.852184 36.3277 0.544002C35.2924 0.394343 35.0862 0.350025 29.7884 0.34082H22.5748Z" fill="url(#paint0_radial_1261_1212)"/>
        <path d="M22.5748 0.34082C13.3218 0.34082 10.6157 0.350366 10.0897 0.394002C8.19081 0.551843 7.00922 0.85082 5.72195 1.49173C4.7299 1.98434 3.94752 2.55537 3.17536 3.35582C1.76911 4.81559 0.916835 6.6115 0.608312 8.74628C0.458312 9.78264 0.414676 9.994 0.405812 15.2876C0.402403 17.0522 0.405812 19.3745 0.405812 22.4893C0.405812 31.7348 0.416039 34.4382 0.460357 34.9632C0.613767 36.8109 0.903539 37.9734 1.51718 39.245C2.6899 41.6791 4.92968 43.5064 7.56831 44.1882C8.48195 44.4234 9.49104 44.553 10.7865 44.6143C11.3354 44.6382 16.9297 44.6553 22.5274 44.6553C28.1251 44.6553 33.7229 44.6484 34.2581 44.6212C35.7581 44.5506 36.6291 44.4337 37.5922 44.1848C40.2479 43.4996 42.4467 41.6996 43.6433 39.2314C44.245 37.9905 44.5501 36.7837 44.6882 35.0324C44.7182 34.6506 44.7308 28.563 44.7308 22.4836C44.7308 16.4031 44.7172 10.3267 44.6872 9.94491C44.5474 8.16537 44.2423 6.96878 43.6211 5.704C43.1115 4.66866 42.5456 3.89548 41.724 3.10491C40.2577 1.70446 38.4646 0.852184 36.3277 0.544002C35.2924 0.394343 35.0862 0.350025 29.7884 0.34082H22.5748Z" fill="url(#paint1_radial_1261_1212)"/>
        <path d="M22.5642 6.13672C18.1201 6.13672 17.5624 6.15615 15.8169 6.23558C14.0749 6.31536 12.8858 6.59115 11.8454 6.99581C10.7691 7.41376 9.85615 7.97286 8.94661 8.88274C8.03638 9.79229 7.47729 10.7052 7.05797 11.7812C6.65229 12.8219 6.37615 14.0114 6.29774 15.7527C6.21967 17.4982 6.19922 18.0563 6.19922 22.5004C6.19922 26.9444 6.21899 27.5005 6.29808 29.2459C6.3782 30.988 6.65399 32.1771 7.05831 33.2175C7.47661 34.2938 8.0357 35.2067 8.94558 36.1163C9.85479 37.0265 10.7677 37.5869 11.8433 38.0049C12.8844 38.4096 14.0739 38.6854 15.8156 38.7651C17.561 38.8446 18.1184 38.864 22.5622 38.864C27.0066 38.864 27.5626 38.8446 29.3081 38.7651C31.0501 38.6854 32.2406 38.4096 33.2817 38.0049C34.3576 37.5869 35.2692 37.0265 36.1784 36.1163C37.0887 35.2067 37.6477 34.2938 38.0671 33.2179C38.4693 32.1771 38.7455 30.9876 38.8273 29.2463C38.9057 27.5008 38.9262 26.9444 38.9262 22.5004C38.9262 18.0563 38.9057 17.4985 38.8273 15.7531C38.7455 14.011 38.4693 12.8219 38.0671 11.7815C37.6477 10.7052 37.0887 9.79229 36.1784 8.88274C35.2682 7.97251 34.358 7.41342 33.2807 6.99581C32.2375 6.59115 31.0477 6.31536 29.3057 6.23558C27.5602 6.15615 27.0046 6.13672 22.5591 6.13672H22.5642ZM21.0963 9.08558C21.5319 9.0849 22.0181 9.08558 22.5642 9.08558C26.9333 9.08558 27.4512 9.10126 29.1765 9.17967C30.7719 9.25263 31.6379 9.51922 32.2147 9.7432C32.9783 10.0398 33.5227 10.3943 34.0951 10.9671C34.6679 11.5398 35.0224 12.0852 35.3197 12.8489C35.5436 13.425 35.8106 14.2909 35.8832 15.8864C35.9616 17.6114 35.9786 18.1296 35.9786 22.4966C35.9786 26.8637 35.9616 27.3818 35.8832 29.1068C35.8102 30.7023 35.5436 31.5682 35.3197 32.1443C35.0231 32.908 34.6679 33.4517 34.0951 34.0241C33.5224 34.5968 32.9786 34.9514 32.2147 35.248C31.6385 35.473 30.7719 35.7389 29.1765 35.8118C27.4515 35.8902 26.9333 35.9073 22.5642 35.9073C18.1948 35.9073 17.6769 35.8902 15.9519 35.8118C14.3565 35.7382 13.4906 35.4716 12.9134 35.2476C12.1498 34.951 11.6043 34.5965 11.0316 34.0238C10.4589 33.451 10.1043 32.9069 9.80706 32.143C9.58308 31.5668 9.31615 30.7009 9.24354 29.1055C9.16513 27.3805 9.14945 26.8623 9.14945 22.4925C9.14945 18.1227 9.16513 17.6073 9.24354 15.8823C9.31649 14.2868 9.58308 13.4209 9.80706 12.8441C10.1037 12.0805 10.4589 11.535 11.0316 10.9623C11.6043 10.3896 12.1498 10.035 12.9134 9.73774C13.4902 9.51274 14.3565 9.24683 15.9519 9.17354C17.4615 9.10536 18.0465 9.0849 21.0963 9.08149V9.08558ZM31.299 11.8026C30.2149 11.8026 29.3354 12.6811 29.3354 13.7656C29.3354 14.8497 30.2149 15.7292 31.299 15.7292C32.3831 15.7292 33.2626 14.8497 33.2626 13.7656C33.2626 12.6815 32.3831 11.8019 31.299 11.8019V11.8026ZM22.5642 14.0969C17.9234 14.0969 14.1608 17.8596 14.1608 22.5004C14.1608 27.1412 17.9234 30.9021 22.5642 30.9021C27.205 30.9021 30.9663 27.1412 30.9663 22.5004C30.9663 17.8596 27.2047 14.0969 22.5639 14.0969H22.5642ZM22.5642 17.0458C25.5765 17.0458 28.0188 19.4877 28.0188 22.5004C28.0188 25.5126 25.5765 27.9549 22.5642 27.9549C19.5516 27.9549 17.1097 25.5126 17.1097 22.5004C17.1097 19.4877 19.5516 17.0458 22.5642 17.0458Z" fill="white"/>
    </g>
    <defs>
        <radialGradient id="paint0_radial_1261_1212" cx="0" cy="0" r="1" gradientUnits="userSpaceOnUse" gradientTransform="translate(12.1786 48.0684) rotate(-90) scale(43.9189 40.8591)">
            <stop stop-color="#FFDD55"/>
            <stop offset="0.1" stop-color="#FFDD55"/>
            <stop offset="0.5" stop-color="#FF543E"/>
            <stop offset="1" stop-color="#C837AB"/>
        </radialGradient>
        <radialGradient id="paint1_radial_1261_1212" cx="0" cy="0" r="1" gradientUnits="userSpaceOnUse" gradientTransform="translate(-7.02063 3.53316) rotate(78.6776) scale(19.6321 80.9448)">
            <stop stop-color="#3771C8"/>
            <stop offset="0.128" stop-color="#3771C8"/>
            <stop offset="1" stop-color="#6600FF" stop-opacity="0"/>
        </radialGradient>
        <clipPath id="clip0_1261_1212">
            <rect width="45.0014" height="45" fill="white" transform="translate(0.0625)"/>
        </clipPath>
    </defs>
</svg>