<svg xmlns="http://www.w3.org/2000/svg" width="46" height="45" viewBox="0 0 46 45" fill="none">
    <circle cx="22.5645" cy="22.5" r="22" fill="#1647F3" stroke="white"/>
    <g clip-path="url(#clip0_1261_1221)">
        <path d="M24.8953 25.6393C24.2023 26.1013 23.3972 26.3456 22.5672 26.3456C21.7373 26.3456 20.9323 26.1013 20.2392 25.6393L8.82415 18.029C8.76082 17.9868 8.69912 17.9428 8.63867 17.8975V30.3678C8.63867 31.7975 9.79893 32.9322 11.2031 32.9322H33.9313C35.3611 32.9322 36.4958 31.772 36.4958 30.3678V17.8975C36.4352 17.9428 36.3734 17.987 36.3099 18.0292L24.8953 25.6393Z" fill="white"/>
        <path d="M9.72956 16.6709L21.1446 24.2812C21.5767 24.5693 22.072 24.7133 22.5672 24.7133C23.0625 24.7133 23.5577 24.5693 23.9899 24.2812L35.4049 16.6709C36.088 16.2158 36.4958 15.454 36.4958 14.6319C36.4958 13.2183 35.3458 12.0684 33.9322 12.0684H11.2022C9.7887 12.0684 8.63867 13.2184 8.63867 14.6333C8.63867 15.454 9.04652 16.2158 9.72956 16.6709Z" fill="white"/>
    </g>
    <defs>
        <clipPath id="clip0_1261_1221">
            <rect width="27.8571" height="27.8571" fill="white" transform="translate(8.63867 8.57129)"/>
        </clipPath>
    </defs>
</svg>