<svg width="26" height="28" viewBox="0 0 30 32" fill="none" xmlns="http://www.w3.org/2000/svg">
<g clip-path="url(#clip0_1261_1325)">
<path d="M21.5477 7.93394L16.0667 0L15.9062 0.110798L21.3106 7.93394H21.5477Z" fill="white"/>
<path d="M27.0663 6.72287L29.6548 2.9312L29.4937 2.82129L26.8301 6.72287H27.0663Z" fill="white"/>
<path d="M26.2687 14.7646H26.0312L29.8389 20.2763L29.9994 20.1654L26.2687 14.7646Z" fill="white"/>
<path d="M21.3388 14.7646L10.3108 30.9185L10.2559 30.9991L10.417 31.1091L21.5752 14.7646H21.3388Z" fill="white"/>
<path d="M20.1421 10.6373C19.9443 9.92902 19.273 9.45398 18.4703 9.45398H18.4658C18.041 9.45728 17.6301 9.60582 17.3014 9.87493C16.9726 10.144 16.7459 10.5175 16.6587 10.9333L19.9325 10.9261C19.9674 10.9298 20.0027 10.9252 20.0355 10.9127C20.0684 10.9003 20.0978 10.8804 20.1216 10.8545C20.1411 10.8222 20.1531 10.7859 20.1566 10.7483C20.1602 10.7107 20.1552 10.6728 20.1421 10.6373ZM21.1823 10.4816C21.2364 10.6479 21.2516 10.8245 21.2267 10.9976C21.2018 11.1707 21.1375 11.3358 21.0387 11.4801C20.9101 11.6511 20.6596 11.8551 20.1955 11.856L16.6539 11.8639C16.7383 12.2854 16.9661 12.6646 17.2987 12.937C17.6312 13.2093 18.0479 13.358 18.4777 13.3577H18.4821C18.7987 13.363 19.1108 13.2827 19.3856 13.1252C19.6603 12.9678 19.8875 12.7391 20.043 12.4633H21.1619L21.1511 12.4913C20.9422 13.0365 20.5717 13.5049 20.0893 13.8338C19.6069 14.1626 19.0355 14.3362 18.4517 14.3314H18.4443C18.0588 14.3411 17.6754 14.2722 17.3175 14.1289C16.9596 13.9855 16.6347 13.7707 16.3625 13.4976C16.0904 13.2244 15.8768 12.8987 15.7348 12.5402C15.5928 12.1818 15.5253 11.7981 15.5365 11.4127C15.5329 9.73552 16.7805 8.46807 18.4387 8.46471H18.4462C19.7723 8.46471 20.8202 9.23634 21.1823 10.4816ZM25.1294 14.2068C24.1956 12.84 24.0676 12.6484 23.7883 12.24L22.4825 14.208H21.2421L23.1857 11.3497L21.1506 8.49132H21.9108C22.0638 8.48315 22.2163 8.51432 22.3538 8.58186C22.4914 8.6494 22.6093 8.75106 22.6963 8.87713C22.8686 9.12445 23.6023 10.2 23.7894 10.4753C23.986 10.1829 25.6063 7.79646 25.669 7.70188C25.7475 7.56571 25.8624 7.45415 26.0009 7.37976C26.1393 7.30538 26.2958 7.27112 26.4527 7.28085H27.2166L24.3956 11.3497L26.3683 14.208L25.1294 14.2068ZM15.734 8.78563C15.734 8.73329 15.7357 8.67097 15.7369 8.61745C15.739 8.54266 15.7399 8.50606 15.7378 8.48885L15.732 8.43938L15.6825 8.43681C14.601 8.38151 13.9455 8.61092 13.5946 9.17609C13.5632 8.90978 13.4683 8.73181 13.3022 8.62368C13.111 8.49923 12.8457 8.49063 12.593 8.48993H12.5343V14.208H13.6108V11.2909C13.6081 10.1679 14.1173 9.52471 15.0437 9.4797C15.5025 9.45813 15.7348 9.22457 15.7337 8.78543L15.734 8.78563ZM4.82607 11.4313C4.8239 10.3079 4.03347 9.49355 2.94646 9.49355H2.94161C1.90516 9.49582 1.06408 10.3686 1.06645 11.4393C1.06499 11.9515 1.26405 12.4438 1.62104 12.8111C1.79242 12.9898 1.99818 13.1321 2.22596 13.2293C2.45373 13.3266 2.69881 13.3767 2.94646 13.3768H2.95052C4.09253 13.3745 4.82894 12.6107 4.82607 11.4313ZM5.83177 6.50111L5.8836 6.50714V14.208H4.82132V13.6319C4.30048 14.1097 3.61888 14.3741 2.91203 14.3723H2.90491C2.52458 14.3762 2.14723 14.3049 1.79448 14.1627C1.44173 14.0204 1.12051 13.81 0.849209 13.5434C0.575338 13.267 0.359102 12.9389 0.213054 12.5783C0.0670063 12.2176 -0.00594433 11.8315 -0.00156282 11.4424C-0.0079075 11.053 0.0631572 10.6662 0.207506 10.3045C0.351856 9.94276 0.566614 9.61332 0.839316 9.33526C1.11034 9.06659 1.43186 8.85421 1.78533 8.71035C2.13881 8.56649 2.51726 8.494 2.89888 8.49706H2.9058C3.66546 8.49706 4.36824 8.76416 4.82103 9.21724V7.30944C4.81375 7.19948 4.83064 7.08926 4.87052 6.98653C4.91039 6.8838 4.97227 6.79105 5.05183 6.71479C5.34831 6.44966 5.81208 6.49883 5.83177 6.50111ZM11.3708 8.49132H11.4868V12.2734C11.4883 12.9362 11.2546 13.4797 10.8113 13.8463C10.4118 14.1766 9.84731 14.352 9.21319 14.3533H9.20527C8.57501 14.3533 8.0132 14.1805 7.61364 13.8533C7.16847 13.4887 6.93223 12.9458 6.93104 12.2835V8.49132H6.9898C7.41628 8.49023 8.01726 8.48924 8.01864 9.36989V12.1459C8.02211 12.9601 8.42148 13.3731 9.20626 13.3731H9.21111C10.0005 13.3712 10.3999 12.9567 10.3982 12.1407V9.35851C10.3982 9.06371 10.4704 8.84152 10.6144 8.69808C10.8257 8.48776 11.161 8.49003 11.3708 8.49132Z" fill="white"/>
<path d="M27.3861 9.71518C27.2397 9.71252 27.1003 9.65183 26.9987 9.54643C26.897 9.44104 26.8414 9.29958 26.844 9.15317C26.8414 9.00682 26.8971 8.86545 26.9988 8.76014C27.1004 8.65483 27.2397 8.59419 27.3861 8.59156C27.5325 8.59416 27.6718 8.65479 27.7735 8.7601C27.8752 8.86542 27.9309 9.0068 27.9283 9.15317C27.9309 9.2996 27.8753 9.44107 27.7736 9.54647C27.6719 9.65186 27.5325 9.71255 27.3861 9.71518ZM27.3862 8.48047C27.2104 8.48326 27.0429 8.55563 26.9203 8.68173C26.7978 8.80782 26.7302 8.97736 26.7325 9.15317C26.7301 9.32906 26.7976 9.49871 26.9202 9.62491C27.0427 9.75111 27.2103 9.82356 27.3862 9.82637C27.5621 9.82356 27.7296 9.7511 27.8522 9.6249C27.9747 9.4987 28.0422 9.32905 28.0398 9.15317C28.042 8.97737 27.9745 8.80786 27.852 8.68176C27.7295 8.55567 27.562 8.48328 27.3862 8.48047ZM27.3755 9.10885H27.249V8.865H27.4084C27.4287 8.86452 27.449 8.86584 27.4691 8.86895C27.4878 8.87141 27.5059 8.87692 27.5228 8.88528C27.5389 8.89353 27.5523 8.90602 27.5618 8.92139C27.5734 8.93986 27.579 8.96144 27.5779 8.98322C27.5792 9.00829 27.5729 9.03316 27.5599 9.05464C27.5497 9.07133 27.5344 9.08428 27.5163 9.09154C27.4956 9.10043 27.4735 9.10556 27.451 9.10668C27.4276 9.10846 27.4016 9.10885 27.3755 9.10885ZM27.4942 9.1963C27.5472 9.19298 27.598 9.17355 27.6396 9.14061C27.6598 9.12095 27.6754 9.09712 27.6854 9.07078C27.6953 9.04444 27.6994 9.01624 27.6972 8.98816C27.6994 8.95725 27.6946 8.92624 27.683 8.89748C27.6715 8.86872 27.6535 8.84297 27.6305 8.82216C27.571 8.78153 27.4995 8.76222 27.4276 8.76736H27.1298V9.53701H27.249V9.2058H27.3776L27.5861 9.53701H27.7147L27.4942 9.1963Z" fill="white"/>
</g>
<defs>
<clipPath id="clip0_1261_1325">
<rect width="30" height="31.1095" fill="white"/>
</clipPath>
</defs>
</svg>
