<svg width="782" height="438" viewBox="0 0 782 438" fill="none" xmlns="http://www.w3.org/2000/svg">
<path fill-rule="evenodd" clip-rule="evenodd" d="M574.532 1.24226C652.987 5.42541 710.998 47.5183 753.108 112.27L753.458 112.793L753.72 113.316C772.591 150.267 783.075 189.833 780.803 231.49C776.697 308.268 736.596 365.525 672.994 407.095L672.644 407.356L672.295 407.531C635.339 428.272 595.5 438.904 553.04 436.638L548.934 436.377C531.723 435.418 515.56 432.717 500.358 428.446C451.783 414.59 465.237 334.064 524.297 350.884C533.558 353.498 543.255 355.154 553.302 355.677L558.544 355.938C604.411 358.379 640.668 338.421 670.46 304.433C688.37 281.252 698.504 255.281 700.077 225.999C702.873 173.884 679.896 134.754 637.873 104.775C617.342 91.4414 594.801 83.1622 570.251 81.855C522.287 79.3277 484.458 99.1976 453.792 135.364C445.667 145.822 439.29 156.977 434.747 168.83C424.612 194.713 407.576 203.602 389.404 201.075C354.108 196.282 347.119 171.008 357.428 143.469C373.59 100.069 404.081 64.5995 445.318 35.9275L445.58 35.7532L445.842 35.5789C485.157 11.4387 528.141 -1.28506 574.532 1.24226Z" fill="white"/>
<path fill-rule="evenodd" clip-rule="evenodd" d="M404.518 232.622H406.09C413.866 232.622 420.855 234.365 426.709 237.502C438.503 243.777 445.929 255.716 445.929 271.577V370.404L445.755 371.45C441.998 393.325 428.98 408.314 405.828 408.314H403.469L402.508 408.14C384.161 405.003 370.096 395.59 366.077 378.945C357.602 386.788 348.604 394.196 339.081 401.168L338.731 401.429L338.382 401.604C302.562 424.262 263.334 437.073 220.875 437.073H216.768C137.178 437.073 77.1575 397.943 33.0377 333.105L32.8629 332.843L32.6882 332.582C11.2835 297.548 0.362793 259.202 0.362793 218.068C0.362793 144.863 34.4355 87.1704 91.7476 42.7244L92.0097 42.5501L92.2718 42.3758C130.363 16.0568 172.648 1.15436 219.04 1.15436C260.539 1.15436 299.067 12.048 333.751 34.6195C350.351 45.426 360.573 66.9518 351.487 85.776C346.681 95.6238 337.333 103.206 326.937 106.517C313.57 110.875 299.766 108.26 287.797 101.201C266.654 88.5647 243.677 81.8543 219.04 81.8543C171.076 81.8543 134.295 103.729 105.639 141.464C89.0393 165.343 81.3511 192.011 81.3511 221.031C81.3511 267.743 103.542 303.648 139.974 331.885C163.213 347.397 188.724 356.112 216.768 356.112H222.01C261.15 356.112 292.602 340.164 318.288 313.322H307.804L306.755 313.148C284.826 309.4 269.799 296.415 269.799 273.32V271.055L269.974 270.096C273.644 248.309 286.312 232.622 309.638 232.622H404.518Z" fill="white"/>
<path fill-rule="evenodd" clip-rule="evenodd" d="M565.717 290.752C603.935 290.752 634.917 259.77 634.917 221.551C634.917 183.333 603.935 152.351 565.717 152.351C527.499 152.351 496.517 183.333 496.517 221.551C496.517 259.77 527.499 290.752 565.717 290.752ZM567.023 246.359C581.445 246.359 593.136 234.668 593.136 220.246C593.136 205.824 581.445 194.132 567.023 194.132C552.601 194.132 540.91 205.824 540.91 220.246C540.91 234.668 552.601 246.359 567.023 246.359Z" fill="white"/>
</svg>
