<svg xmlns="http://www.w3.org/2000/svg" width="46" height="45" viewBox="0 0 46 45" fill="none">
    <g clip-path="url(#clip0_1261_1216)">
        <path d="M44.5645 22.5C44.5645 34.6503 34.7147 44.5 22.5645 44.5C10.4142 44.5 0.564453 34.6503 0.564453 22.5C0.564453 10.3497 10.4142 0.5 22.5645 0.5C34.7147 0.5 44.5645 10.3497 44.5645 22.5Z" fill="#007AB9" stroke="white"/>
        <path d="M36.0089 24.3108V33.587H30.6307V24.9325C30.6307 22.7594 29.8542 21.2754 27.907 21.2754C26.421 21.2754 25.5382 22.2745 25.1483 23.2419C25.0067 23.5876 24.9702 24.0677 24.9702 24.5526V33.5866H19.5917C19.5917 33.5866 19.6639 18.9286 19.5917 17.4113H24.9706V19.7035C24.9598 19.7216 24.9446 19.7392 24.9349 19.7565H24.9706V19.7035C25.6854 18.6037 26.96 17.0315 29.8177 17.0315C33.3561 17.0315 36.0089 19.3433 36.0089 24.3108ZM13.9653 9.61426C12.1255 9.61426 10.9219 10.8219 10.9219 12.4086C10.9219 13.9616 12.0906 15.2042 13.8947 15.2042H13.9296C15.8055 15.2042 16.9718 13.9616 16.9718 12.4086C16.9361 10.8219 15.8055 9.61426 13.9653 9.61426ZM11.2415 33.587H16.6181V17.4113H11.2415V33.587Z" fill="#F1F2F2"/>
    </g>
    <defs>
        <clipPath id="clip0_1261_1216">
            <rect width="45" height="45" fill="white" transform="translate(0.0644531)"/>
        </clipPath>
    </defs>
</svg>