<svg xmlns="http://www.w3.org/2000/svg" width="75" height="18" viewBox="0 0 75 18" fill="none">
    <path d="M51.8444 0.547407V17.4526H54.33V0.547407H51.8444ZM25.2892 0.258628C20.4469 0.258606 16.6898 3.85349 16.6898 9C16.6898 14.3783 20.4469 17.7415 25.2892 17.7414C30.1314 17.7413 33.8962 14.3783 33.8885 9C33.8815 4.12388 30.1314 0.258651 25.2892 0.258628ZM31.4074 9C31.4074 12.81 28.6682 15.3348 25.2892 15.3348C21.9101 15.3348 19.1709 12.81 19.1709 9C19.1709 5.25915 21.9101 2.66519 25.2892 2.66519C28.6682 2.66519 31.4074 5.25915 31.4074 9ZM0 1.5255e-06V17.4526H2.53673V5.91889L15.719 18V14.3816L0 1.5255e-06ZM35.7579 9L44.9828 17.4526H48.6816L39.4429 9L48.6816 0.547398H44.9828L35.7579 9ZM75 17.4526H72.2656L70.2662 13.709H61.2097L59.2099 17.4526H56.4754L59.7869 11.2129H68.9656L64.3888 2.54155L65.7379 0L75 17.4526Z" fill="white"/>
</svg>