<svg xmlns="http://www.w3.org/2000/svg" width="46" height="46" viewBox="0 0 46 46" fill="none">
    <g clip-path="url(#clip0_1261_1205)">
        <path d="M45.5 23C45.5 35.4264 35.4264 45.5 23 45.5C10.5736 45.5 0.5 35.4264 0.5 23C0.5 10.5736 10.5736 0.5 23 0.5C35.4264 0.5 45.5 10.5736 45.5 23Z" fill="url(#paint0_linear_1261_1205)" stroke="white"/>
        <path fillRule="evenodd" clipRule="evenodd" d="M10.4105 22.7569C17.1154 19.8357 21.5865 17.9098 23.8235 16.9793C30.2109 14.3227 31.5381 13.8611 32.4032 13.8459C32.5935 13.8425 33.0189 13.8897 33.2944 14.1133C33.7032 14.445 33.7055 15.165 33.6602 15.6416C33.314 19.2784 31.8163 28.1041 31.0543 32.1774C30.7319 33.901 30.0971 34.4789 29.4825 34.5354C28.1469 34.6584 27.1327 33.6527 25.839 32.8048C23.8147 31.4778 22.6711 30.6518 20.7061 29.3569C18.4353 27.8605 19.9074 27.0381 21.2015 25.6939C21.5402 25.3422 27.4251 19.9894 27.539 19.5038C27.5533 19.443 27.5665 19.2166 27.432 19.0971C27.2975 18.9776 27.0991 19.0184 26.9558 19.051C26.7528 19.0971 23.519 21.2345 17.2543 25.4633C16.3364 26.0936 15.505 26.4007 14.7601 26.3846C13.9388 26.3669 12.3592 25.9203 11.1849 25.5386C9.74448 25.0704 8.59969 24.8228 8.69942 24.0277C8.75135 23.6134 9.32167 23.1899 10.4105 22.7569Z" fill="white"/>
    </g>
    <defs>
        <linearGradient id="paint0_linear_1261_1205" x1="23" y1="0" x2="23" y2="45.6406" gradientUnits="userSpaceOnUse">
            <stop stop-color="#2AABEE"/>
            <stop offset="1" stop-color="#229ED9"/>
        </linearGradient>
        <clipPath id="clip0_1261_1205">
            <rect width="46" height="46" fill="white"/>
        </clipPath>
    </defs>
</svg>