<svg id="Capa_1" fill="white" enable-background="new 0 0 97.75 97.75" height="97.75" viewBox="0 0 97.75 97.75" width="97.75" xmlns="http://www.w3.org/2000/svg"><g><path d="m48.875 0c-26.992 0-48.875 21.883-48.875 48.875s21.883 48.875 48.875 48.875 48.875-21.883 48.875-48.875-21.883-48.875-48.875-48.875zm28.816 37.503c-2.779 6.28-11.279 26.171-16.951 39.136-.008.006-1.486-.003-1.49-.005l-8.945-21.069c-3.545 6.953-7.473 14.181-10.832 21.059-.02.035-1.625.016-1.627-.006-5.135-11.986-10.459-23.893-15.621-35.87-1.195-2.928-5.387-7.637-8.256-7.61 0-.34-.016-1.099-.02-1.558l17.682-.002-.014 1.531c-2.076.096-5.664 1.421-4.734 3.713 2.492 5.381 11.316 26.227 13.701 31.519 1.664-3.257 6.311-11.939 8.225-15.609-1.5-3.078-6.457-14.57-7.943-17.464-1.121-1.887-3.934-2.118-6.1-2.151 0-.483.025-.855.016-1.518l15.543.048v1.412c-2.104.058-4.096.841-3.193 2.853 2.091 4.34 3.312 7.43 5.231 11.444.613-1.176 3.755-7.622 5.253-11.024.905-2.262-.447-3.109-4.232-3.211.05-.372.017-1.119.05-1.475l13.424.013.006 1.401c-2.467.096-5.021 1.41-6.354 3.45l-6.464 13.406c.709 1.773 6.924 15.58 7.578 17.111l13.364-30.847c-.951-2.497-3.984-3.055-5.17-3.082.008-.398.01-1.005.012-1.512l13.951.04.02.07-.023 1.394c-3.061.093-4.954 1.73-6.087 4.413z"/></g><g/><g/><g/><g/><g/><g/><g/><g/><g/><g/><g/><g/><g/><g/><g/></svg>